<?xml version="1.0" encoding="UTF-8" standalone="no"?>
<svg
   viewBox="0 0 337.65648 104.65378"
   version="1.1"
   id="svg48"
   sodipodi:docname="logo.svg"
   inkscape:version="1.4.2 (ebf0e940d0, 2025-05-08)"
   width="337.65649"
   height="104.65378"
   xmlns:inkscape="http://www.inkscape.org/namespaces/inkscape"
   xmlns:sodipodi="http://sodipodi.sourceforge.net/DTD/sodipodi-0.dtd"
   xmlns="http://www.w3.org/2000/svg"
   xmlns:svg="http://www.w3.org/2000/svg"
   xmlns:rdf="http://www.w3.org/1999/02/22-rdf-syntax-ns#"
   xmlns:cc="http://creativecommons.org/ns#"
   xmlns:dc="http://purl.org/dc/elements/1.1/">
  <metadata
     id="metadata52">
    <rdf:RDF>
      <cc:Work
         rdf:about="">
        <dc:format>image/svg+xml</dc:format>
        <dc:type
           rdf:resource="http://purl.org/dc/dcmitype/StillImage" />
        <dc:title>horizon-eda-logo_with_text</dc:title>
      </cc:Work>
    </rdf:RDF>
  </metadata>
  <sodipodi:namedview
     pagecolor="#ffffff"
     bordercolor="#666666"
     borderopacity="1"
     objecttolerance="10"
     gridtolerance="10"
     guidetolerance="10"
     inkscape:pageopacity="0"
     inkscape:pageshadow="2"
     inkscape:window-width="990"
     inkscape:window-height="576"
     id="namedview50"
     showgrid="false"
     inkscape:zoom="1.1224426"
     inkscape:cx="306.91994"
     inkscape:cy="142.10081"
     inkscape:window-x="0"
     inkscape:window-y="0"
     inkscape:window-maximized="0"
     inkscape:current-layer="Layer_1"
     inkscape:showpageshadow="2"
     inkscape:pagecheckerboard="0"
     inkscape:deskcolor="#d1d1d1" />
  <defs
     id="defs7">
    <style
       id="style2">.cls-1{fill:none;}.cls-2{clip-path:url(#clip-path);}.cls-3{fill:#e5e5e5;}.cls-4{fill:#292929;}.cls-5{fill:#94ccef;}.cls-6{font-size:45px;font-family:Roboto-Medium, Roboto;font-weight:500;}.cls-6,.cls-9{fill:#e4e5e5;}.cls-7{letter-spacing:-0.01em;}.cls-8{letter-spacing:-0.01em;}.cls-9{font-size:35px;font-family:Roboto-Light, Roboto;font-weight:300;}.cls-10{letter-spacing:-0.01em;}.cls-11{letter-spacing:-0.01em;}</style>
    <clipPath
       id="clip-path">
      <rect
         class="cls-1"
         y="13.65"
         width="109.24"
         height="109.24"
         id="rect4"
         x="0" />
    </clipPath>
  </defs>
  <title
     id="title9">horizon-eda-logo_with_text</title>
  <g
     id="Layer_1"
     data-name="Layer 1"
     transform="translate(66.818565,24.799719)">
    <g
       id="g1"
       transform="matrix(5.0330174,0,0,5.0330174,-326.32831,138.81014)">
      <path
         style="color:#000000;font-variation-settings:normal;overflow:visible;vector-effect:none;fill:#e9e9e9;fill-opacity:1;stroke:none;stroke-width:2;stroke-linecap:butt;stroke-linejoin:round;stroke-miterlimit:4;stroke-dasharray:none;stroke-dashoffset:0;stroke-opacity:1;-inkscape-stroke:none;paint-order:markers fill stroke;stop-color:#000000"
         d="m 63.500027,-24.5011 4.999975,-4.000002 v 9.500001 l -4.999975,4.5 z"
         id="path3" />
      <path
         style="color:#000000;overflow:visible;fill:#fffeec;fill-opacity:1;stroke:none;stroke-width:2;stroke-linejoin:round;stroke-opacity:1;paint-order:markers fill stroke"
         d="m 53.999995,-26.0011 5.492977,-3.498901 9.00703,0.998899 -4.999975,4.000002 z"
         id="path1"
         sodipodi:nodetypes="ccccc" />
      <path
         style="color:#000000;overflow:visible;fill:#bcebf1;fill-opacity:1;stroke:none;stroke-width:2;stroke-linejoin:round;stroke-opacity:1;paint-order:markers fill stroke"
         d="m 53.999995,-26.0011 9.500032,1.5 v 9.999999 l -10.000025,-1.5 z"
         id="path2" />
      <path
         sodipodi:nodetypes="cc"
         inkscape:connector-curvature="0"
         id="path6915"
         d="m 68.500002,-19.001101 v -9.500001"
         style="color:#000000;clip-rule:nonzero;display:inline;overflow:visible;visibility:visible;isolation:auto;mix-blend-mode:normal;color-interpolation:sRGB;color-interpolation-filters:linearRGB;solid-color:#000000;solid-opacity:1;vector-effect:none;fill:none;fill-opacity:1;fill-rule:nonzero;stroke:#010101;stroke-width:0.999999;stroke-linecap:round;stroke-linejoin:round;stroke-miterlimit:4;stroke-dasharray:none;stroke-dashoffset:0;stroke-opacity:1;marker:none;color-rendering:auto;image-rendering:auto;shape-rendering:auto;text-rendering:auto;enable-background:accumulate" />
      <path
         sodipodi:nodetypes="cc"
         inkscape:connector-curvature="0"
         id="path6917"
         d="m 63.500027,-14.501101 4.999975,-4.5"
         style="color:#000000;clip-rule:nonzero;display:inline;overflow:visible;visibility:visible;isolation:auto;mix-blend-mode:normal;color-interpolation:sRGB;color-interpolation-filters:linearRGB;solid-color:#000000;solid-opacity:1;vector-effect:none;fill:none;fill-opacity:1;fill-rule:nonzero;stroke:#010101;stroke-width:0.999999;stroke-linecap:butt;stroke-linejoin:round;stroke-miterlimit:4;stroke-dasharray:none;stroke-dashoffset:0;stroke-opacity:1;marker:none;color-rendering:auto;image-rendering:auto;shape-rendering:auto;text-rendering:auto;enable-background:accumulate" />
      <path
         sodipodi:nodetypes="cc"
         inkscape:connector-curvature="0"
         id="path6923"
         d="m 63.500027,-24.5011 -10.000025,-1.5"
         style="vector-effect:none;fill:none;fill-opacity:1;fill-rule:evenodd;stroke:#010101;stroke-width:0.999999;stroke-linecap:butt;stroke-linejoin:round;stroke-miterlimit:4;stroke-dasharray:none;stroke-dashoffset:0;stroke-opacity:1;marker:none" />
      <path
         sodipodi:nodetypes="cc"
         inkscape:connector-curvature="0"
         id="path6921"
         d="m 63.500027,-24.5011 4.999975,-4.000002"
         style="vector-effect:none;fill:none;fill-opacity:1;fill-rule:evenodd;stroke:#010101;stroke-width:0.999999;stroke-linecap:butt;stroke-linejoin:round;stroke-miterlimit:4;stroke-dasharray:none;stroke-dashoffset:0;stroke-opacity:1;marker:none" />
      <path
         sodipodi:nodetypes="cc"
         inkscape:connector-curvature="0"
         id="path6927"
         d="m 59.492972,-29.500001 9.00703,0.998899"
         style="vector-effect:none;fill:none;fill-opacity:1;fill-rule:evenodd;stroke:#010101;stroke-width:0.999999;stroke-linecap:round;stroke-linejoin:round;stroke-miterlimit:4;stroke-dasharray:none;stroke-dashoffset:0;stroke-opacity:1;marker:none" />
      <path
         sodipodi:nodetypes="cc"
         inkscape:connector-curvature="0"
         id="path6925"
         d="m 59.492972,-29.500001 -5.99297,3.498901"
         style="vector-effect:none;fill:none;fill-opacity:1;fill-rule:evenodd;stroke:#010101;stroke-width:0.999999;stroke-linecap:round;stroke-linejoin:round;stroke-miterlimit:4;stroke-dasharray:none;stroke-dashoffset:0;stroke-opacity:1;marker:none" />
      <path
         sodipodi:nodetypes="cc"
         inkscape:connector-curvature="0"
         id="path6913"
         d="m 63.500027,-14.501101 -10.000025,-1.5"
         style="color:#000000;clip-rule:nonzero;display:inline;overflow:visible;visibility:visible;isolation:auto;mix-blend-mode:normal;color-interpolation:sRGB;color-interpolation-filters:linearRGB;solid-color:#000000;solid-opacity:1;vector-effect:none;fill:none;fill-opacity:1;fill-rule:nonzero;stroke:#010101;stroke-width:0.999999;stroke-linecap:round;stroke-linejoin:round;stroke-miterlimit:4;stroke-dasharray:none;stroke-dashoffset:0;stroke-opacity:1;marker:none;color-rendering:auto;image-rendering:auto;shape-rendering:auto;text-rendering:auto;enable-background:accumulate" />
      <path
         sodipodi:nodetypes="cc"
         inkscape:connector-curvature="0"
         id="path6911"
         d="M 53.500002,-16.001101 V -26.0011"
         style="color:#000000;clip-rule:nonzero;display:inline;overflow:visible;visibility:visible;isolation:auto;mix-blend-mode:normal;color-interpolation:sRGB;color-interpolation-filters:linearRGB;solid-color:#000000;solid-opacity:1;vector-effect:none;fill:none;fill-opacity:1;fill-rule:nonzero;stroke:#010101;stroke-width:0.999999;stroke-linecap:butt;stroke-linejoin:round;stroke-miterlimit:4;stroke-dasharray:none;stroke-dashoffset:0;stroke-opacity:1;marker:none;color-rendering:auto;image-rendering:auto;shape-rendering:auto;text-rendering:auto;enable-background:accumulate" />
      <path
         sodipodi:nodetypes="cc"
         inkscape:connector-curvature="0"
         id="path6919"
         d="M 63.500027,-14.501101 V -24.5011"
         style="vector-effect:none;fill:none;fill-opacity:1;fill-rule:evenodd;stroke:#010101;stroke-width:0.999999;stroke-linecap:butt;stroke-linejoin:round;stroke-miterlimit:4;stroke-dasharray:none;stroke-dashoffset:0;stroke-opacity:1;marker:none" />
    </g>
    <path
       style="font-weight:bold;font-size:45.3543px;line-height:78.018px;font-family:Roboto;-inkscape-font-specification:'Roboto Bold';letter-spacing:0px;word-spacing:0px;stroke-width:0.738791px"
       d="M 39.2586,29.637684 V 5.8160387 h 7.329736 q 3.141317,0 5.61183,1.4234092 2.486875,1.4070477 3.877562,4.0248101 1.390685,2.601402 1.390685,5.922689 v 1.09619 q 0,3.321288 -1.374322,5.906328 -1.357965,2.585044 -3.844841,4.00845 -2.486874,1.423409 -5.611831,1.439769 z M 44.166909,9.7917666 V 25.694681 h 2.372347 q 2.879537,0 4.401114,-1.881518 1.521572,-1.88152 1.554298,-5.382779 v -1.259797 q 0,-3.632146 -1.505219,-5.497303 Q 49.484236,9.7917666 46.588336,9.7917666 Z M 71.326198,27.837974 q -1.750625,2.126932 -4.842858,2.126932 -2.846816,0 -4.352029,-1.636101 -1.488855,-1.636103 -1.52158,-4.79378 V 11.935059 h 4.728334 v 11.436356 q 0,2.765013 2.519596,2.765013 2.405076,0 3.304933,-1.668826 V 11.935059 h 4.744697 V 29.637684 H 71.45709 Z m 12.499828,-15.902915 0.147251,2.045129 q 1.897874,-2.372348 5.088279,-2.372348 2.814094,0 4.188415,1.652462 1.374329,1.652465 1.407051,4.941029 V 29.637684 H 89.928684 V 18.315859 q 0,-1.505213 -0.654446,-2.176015 -0.654441,-0.687165 -2.176012,-0.687165 -1.996045,0 -2.994072,1.701546 V 29.637684 H 79.375827 V 11.935059 Z m 22.561844,18.029847 q -3.89393,0 -6.34807,-2.388708 -2.437801,-2.388711 -2.437801,-6.364438 v -0.458109 q 0,-2.666845 1.030747,-4.761056 1.030745,-2.110573 2.912254,-3.239484 1.89789,-1.145271 4.31933,-1.145271 3.63214,0 5.70998,2.290542 2.09421,2.290544 2.09421,6.495326 v 1.930601 h -11.27274 q 0.22905,1.734268 1.37434,2.781373 1.16161,1.047107 2.9286,1.047107 2.73229,0 4.27023,-1.979685 l 2.32327,2.601405 q -1.06347,1.505212 -2.87954,2.355985 -1.81608,0.834412 -4.02481,0.834412 z m -0.53991,-14.528585 q -1.40705,0 -2.29054,0.948938 -0.86714,0.948939 -1.11256,2.71593 h 6.57713 v -0.376305 q -0.0328,-1.570659 -0.85076,-2.421431 -0.81806,-0.867132 -2.32327,-0.867132 z m 23.46169,0.196326 h 2.51959 q 1.79973,0 2.66687,-0.899857 0.86712,-0.899856 0.86712,-2.388707 0,-1.439772 -0.86712,-2.241461 -0.85079,-0.8016903 -2.35599,-0.8016903 -1.35797,0 -2.27418,0.7526083 -0.91621,0.736246 -0.91621,1.930599 h -4.72834 q 0,-1.865157 0.99802,-3.3376482 1.01438,-1.4888531 2.81408,-2.323264 1.81608,-0.8344131 3.99209,-0.8344131 3.77941,0 5.92271,1.8160733 2.14327,1.799712 2.14327,4.973751 0,1.636102 -0.998,3.010428 -0.99803,1.374326 -2.61778,2.110571 2.01242,0.719886 2.99408,2.159655 0.99803,1.43977 0.99803,3.403093 0,3.174039 -2.32327,5.088279 -2.30691,1.914238 -6.11904,1.914238 -3.5667,0 -5.84088,-1.881519 -2.25781,-1.881514 -2.25781,-4.973748 h 4.72833 q 0,1.3416 0.99803,2.192375 1.01437,0.850774 2.48687,0.850774 1.68518,0 2.63412,-0.883496 0.9653,-0.899856 0.9653,-2.372348 0,-3.566702 -3.92665,-3.566702 h -2.50324 z m 14.92126,14.005037 V 5.8160387 h 7.32974 q 3.1413,0 5.61183,1.4234092 2.48688,1.4070477 3.87756,4.0248101 1.39069,2.601402 1.39069,5.922689 v 1.09619 q 0,3.321288 -1.37433,5.906328 -1.35796,2.585044 -3.84484,4.00845 -2.48687,1.423409 -5.61184,1.439769 z M 149.13922,9.7917666 V 25.694681 h 2.37234 q 2.87954,0 4.40111,-1.881518 1.52158,-1.88152 1.5543,-5.382779 v -1.259797 q 0,-3.632146 -1.50521,-5.497303 -1.50521,-1.8815174 -4.40111,-1.8815174 z"
       id="text1"
       aria-label="Dune 3D" />
    <path
       style="font-size:34.0157px;line-height:58.5135px;font-family:Roboto;-inkscape-font-specification:Roboto;letter-spacing:0px;word-spacing:0px;stroke-width:0.738791px"
       d="m 50.065044,47.772209 q 0,3.030875 -1.386595,4.88376 -1.386591,1.852886 -3.754847,1.852886 -2.417342,0 -3.803942,-1.533845 v 6.393061 h -2.270084 v -18.38159 h 2.073759 l 0.110436,1.47249 q 1.386594,-1.717907 3.85302,-1.717907 2.392797,0 3.77939,1.803802 1.398867,1.8038 1.398867,5.018739 z m -2.270086,-0.257687 q 0,-2.245549 -0.957118,-3.546246 -0.95712,-1.300703 -2.625945,-1.300703 -2.061488,0 -3.092235,1.828342 v 6.343983 q 1.018476,1.816071 3.116777,1.816071 1.632012,0 2.58913,-1.288429 0.969391,-1.300699 0.969391,-3.853018 z m 13.350583,6.748917 q -0.196327,-0.392665 -0.319038,-1.398867 -1.582928,1.644283 -3.779399,1.644283 -1.963318,0 -3.227205,-1.104369 -1.251624,-1.116638 -1.251624,-2.822274 0,-2.073757 1.570664,-3.214936 1.582928,-1.153453 4.442013,-1.153453 h 2.208736 v -1.043015 q 0,-1.190264 -0.711709,-1.889696 -0.7117,-0.711705 -2.098301,-0.711705 -1.2148,0 -2.036943,0.61354 -0.822142,0.613538 -0.822142,1.484759 h -2.282355 q 0,-0.99393 0.699428,-1.914238 0.711709,-0.932576 1.914238,-1.47249 1.21481,-0.539914 2.662761,-0.539914 2.294627,0 3.59533,1.153453 1.3007,1.14118 1.349784,3.153583 v 6.11084 q 0,1.828342 0.466289,2.908167 v 0.196327 z m -3.767128,-1.730177 q 1.067562,0 2.024681,-0.552183 0.957118,-0.552182 1.386594,-1.435678 v -2.724109 h -1.779262 q -4.17206,0 -4.17206,2.441881 0,1.067554 0.71171,1.668823 0.711699,0.601266 1.828337,0.601266 z m 15.65749,-9.509837 q -0.515373,-0.08589 -1.116638,-0.08589 -2.23328,0 -3.03088,1.901968 v 9.42394 H 66.618293 V 40.986489 h 2.208737 l 0.03681,1.533845 q 1.116638,-1.779259 3.165854,-1.779259 0.662624,0 1.006206,0.171791 z m 9.79206,11.240014 q -0.196327,-0.392665 -0.31904,-1.398867 -1.582925,1.644283 -3.77939,1.644283 -1.963324,0 -3.227211,-1.104369 -1.251618,-1.116638 -1.251618,-2.822274 0,-2.073757 1.570658,-3.214936 1.582926,-1.153453 4.442012,-1.153453 h 2.208744 v -1.043015 q 0,-1.190264 -0.711709,-1.889696 -0.711706,-0.711705 -2.098301,-0.711705 -1.214803,0 -2.036943,0.61354 -0.822142,0.613538 -0.822142,1.484759 h -2.282364 q 0,-0.99393 0.699436,-1.914238 0.71171,-0.932576 1.914239,-1.47249 1.214803,-0.539914 2.662754,-0.539914 2.294634,0 3.595334,1.153453 1.300703,1.14118 1.349779,3.153583 v 6.11084 q 0,1.828342 0.46629,2.908167 v 0.196327 z m -3.76712,-1.730177 q 1.067555,0 2.024673,-0.552183 0.95712,-0.552182 1.386602,-1.435678 v -2.724109 h -1.779261 q -4.172061,0 -4.172061,2.441881 0,1.067554 0.7117,1.668823 0.711709,0.601266 1.828347,0.601266 z m 11.374995,-11.546781 0.06135,1.47249 q 1.460212,-1.717907 3.938908,-1.717907 2.785459,0 3.791665,2.135112 0.66262,-0.957119 1.717916,-1.546113 1.067533,-0.588999 2.515493,-0.588999 4.3684,0 4.44202,4.626074 v 8.896301 h -2.27009 v -8.76132 q 0,-1.42341 -0.65036,-2.122842 -0.65035,-0.711704 -2.18419,-0.711704 -1.26388,0 -2.098291,0.760789 -0.83442,0.748515 -0.969398,2.024672 v 8.810405 h -2.282362 v -8.699967 q 0,-2.895899 -2.834545,-2.895899 -2.233276,0 -3.055419,1.901969 v 9.693897 H 88.288453 V 40.986481 Z m 25.400472,13.522374 q -2.69957,0 -4.39293,-1.76699 -1.69337,-1.779259 -1.69337,-4.748784 v -0.417202 q 0,-1.975595 0.74852,-3.521708 0.76078,-1.558386 2.11057,-2.429612 1.36205,-0.883495 2.94499,-0.883495 2.58912,0 4.02479,1.705637 1.43569,1.705634 1.43569,4.88376 v 0.944848 h -8.99447 q 0.049,1.963321 1.14118,3.178127 1.10436,1.202533 2.79773,1.202533 1.20253,0 2.03695,-0.49083 0.83442,-0.490829 1.46023,-1.3007 l 1.38659,1.079828 q -1.66882,2.564588 -5.00647,2.564588 z M 115.55409,42.60622 q -1.37433,0 -2.3069,1.006203 -0.9326,0.99393 -1.15347,2.797733 h 6.65076 v -0.171791 q -0.0982,-1.730178 -0.93258,-2.675026 -0.83442,-0.957119 -2.25781,-0.957119 z m 11.16638,-4.834678 v 3.214939 h 2.47868 v 1.754718 h -2.47868 v 8.233676 q 0,0.7976 0.33131,1.202537 0.33132,0.392664 1.1289,0.392664 0.39267,0 1.07984,-0.147251 v 1.840613 q -0.89577,0.245416 -1.74245,0.245416 -1.52159,0 -2.29464,-0.920307 -0.77305,-0.920307 -0.77305,-2.613673 v -8.233677 h -2.41734 v -1.754719 h 2.41734 v -3.214937 z m 11.54678,5.251883 q -0.51538,-0.08589 -1.11664,-0.08589 -2.23328,0 -3.03088,1.901968 v 9.42394 h -2.2701 V 40.986489 h 2.20876 l 0.0368,1.533845 q 1.11663,-1.779259 3.16586,-1.779259 0.66261,0 1.00619,0.171791 z m 4.55244,11.240014 h -2.27007 V 40.986481 h 2.27007 z m -2.45413,-16.798666 q 0,-0.552184 0.33129,-0.932578 0.34358,-0.380394 1.00621,-0.380394 0.66261,0 1.00621,0.380394 0.34358,0.380394 0.34358,0.932578 0,0.552185 -0.34358,0.920307 -0.3436,0.368122 -1.00621,0.368122 -0.66263,0 -1.00621,-0.368122 -0.33129,-0.368122 -0.33129,-0.920307 z m 11.41178,15.191196 q 1.21481,0 2.12284,-0.736243 0.90805,-0.736247 1.00621,-1.840615 h 2.1474 q -0.0613,1.141181 -0.78533,2.171924 -0.72399,1.030742 -1.9388,1.644281 -1.20253,0.613539 -2.55232,0.613539 -2.71183,0 -4.31929,-1.803802 -1.5952,-1.816074 -1.5952,-4.957387 v -0.38039 q 0,-1.938782 0.71171,-3.448085 0.71169,-1.509301 2.03692,-2.343713 1.33753,-0.834414 3.15361,-0.834414 2.23328,0 3.70576,1.337514 1.48477,1.337511 1.58294,3.472625 h -2.1474 q -0.0982,-1.28843 -0.98165,-2.110571 -0.87123,-0.834412 -2.15965,-0.834412 -1.73019,0 -2.68732,1.251617 -0.94483,1.239345 -0.94483,3.595332 v 0.429477 q 0,2.294631 0.94483,3.533977 0.94485,1.239346 2.69957,1.239346 z m 17.11771,-8.43001 h 1.70564 q 1.60748,-0.02453 2.52778,-0.846682 0.92031,-0.822139 0.92031,-2.221005 0,-3.141314 -3.12904,-3.141314 -1.47251,0 -2.356,0.846681 -0.87122,0.834411 -0.87122,2.221006 h -2.27009 q 0,-2.12284 1.54612,-3.521705 1.55838,-1.411139 3.95119,-1.411139 2.52777,0 3.96344,1.337513 1.43568,1.337513 1.43568,3.718041 0,1.16572 -0.76077,2.257818 -0.74854,1.092097 -2.04923,1.632009 1.47248,0.46629 2.27009,1.546116 0.80986,1.079827 0.80986,2.638213 0,2.405069 -1.57064,3.816205 -1.57066,1.411139 -4.08617,1.411139 -2.51552,0 -4.09843,-1.362054 -1.57067,-1.362056 -1.57067,-3.595332 h 2.28237 q 0,1.411137 0.9203,2.257819 0.92032,0.846681 2.46643,0.846681 1.64428,0 2.51551,-0.858951 0.87122,-0.858954 0.87122,-2.466423 0,-1.558386 -0.95712,-2.392797 -0.95712,-0.834412 -2.76092,-0.858951 h -1.70564 z m 11.39956,10.03748 V 36.397217 h 5.04327 q 2.33143,0 4.12295,1.030743 1.79154,1.030742 2.76095,2.932711 0.98164,1.901968 0.99393,4.36839 v 1.141181 q 0,2.527776 -0.98168,4.429742 -0.96938,1.901969 -2.78546,2.920441 -1.80378,1.018472 -4.20886,1.043014 z m 2.35596,-15.927443 V 52.33693 h 2.4787 q 2.72411,0 4.23339,-1.693364 1.5216,-1.693366 1.5216,-4.822406 v -1.043016 q 0,-3.043148 -1.43569,-4.724241 -1.42341,-1.693366 -4.04935,-1.717907 z m 33.48689,10.258355 q -0.33131,2.834546 -2.0983,4.380659 -1.75472,1.533845 -4.67515,1.533845 -3.16584,0 -5.08008,-2.27009 -1.90199,-2.270092 -1.90199,-6.074027 v -1.717904 q 0,-2.490962 0.8835,-4.380661 0.89576,-1.889695 2.52777,-2.8959 1.63202,-1.018472 3.7794,-1.018472 2.8468,0 4.56471,1.5952 1.71792,1.582928 2.00014,4.392932 h -2.36825 q -0.30677,-2.135114 -1.33752,-3.092232 -1.01847,-0.957119 -2.85908,-0.957119 -2.25782,0 -3.54625,1.668823 -1.27615,1.668823 -1.27615,4.748782 v 1.730178 q 0,2.90817 1.21479,4.626074 1.21482,1.717906 3.39901,1.717906 1.96331,0 3.00633,-0.883492 1.05529,-0.895769 1.39887,-3.104502 z m 13.08062,1.006199 h -7.48516 l -1.6811,4.662889 h -2.4296 l 6.82255,-17.866222 h 2.0615 l 6.8348,17.866222 h -2.41733 z m -6.77344,-1.938779 h 6.07403 l -3.04314,-8.356384 z m 13.30151,6.601668 V 36.397217 h 5.04328 q 2.33144,0 4.12298,1.030743 1.79152,1.030742 2.76092,2.932711 0.98165,1.901968 0.99393,4.36839 v 1.141181 q 0,2.527776 -0.98168,4.429742 -0.96937,1.901969 -2.78544,2.920441 -1.8038,1.018472 -4.20888,1.043014 z m 2.35597,-15.927443 V 52.33693 h 2.4787 q 2.72411,0 4.23339,-1.693364 1.5216,-1.693366 1.5216,-4.822406 v -1.043016 q 0,-3.043148 -1.43567,-4.724241 -1.42341,-1.693366 -4.04937,-1.717907 z"
       id="text2"
       aria-label="parametric 3D CAD" />
  </g>
</svg>
