<?xml version="1.0" encoding="UTF-8" standalone="no"?>
<svg
   viewBox="0 0 261.708 68.365756"
   version="1.1"
   id="svg48"
   sodipodi:docname="logo.svg"
   inkscape:version="1.4.2 (ebf0e940d0, 2025-05-08)"
   width="261.70801"
   height="68.365753"
   xmlns:inkscape="http://www.inkscape.org/namespaces/inkscape"
   xmlns:sodipodi="http://sodipodi.sourceforge.net/DTD/sodipodi-0.dtd"
   xmlns="http://www.w3.org/2000/svg"
   xmlns:svg="http://www.w3.org/2000/svg"
   xmlns:rdf="http://www.w3.org/1999/02/22-rdf-syntax-ns#"
   xmlns:cc="http://creativecommons.org/ns#"
   xmlns:dc="http://purl.org/dc/elements/1.1/">
  <metadata
     id="metadata52">
    <rdf:RDF>
      <cc:Work
         rdf:about="">
        <dc:format>image/svg+xml</dc:format>
        <dc:type
           rdf:resource="http://purl.org/dc/dcmitype/StillImage" />
        <dc:title>horizon-eda-logo_with_text</dc:title>
      </cc:Work>
    </rdf:RDF>
  </metadata>
  <sodipodi:namedview
     pagecolor="#ffffff"
     bordercolor="#666666"
     borderopacity="1"
     objecttolerance="10"
     gridtolerance="10"
     guidetolerance="10"
     inkscape:pageopacity="0"
     inkscape:pageshadow="2"
     inkscape:window-width="1536"
     inkscape:window-height="936"
     id="namedview50"
     showgrid="false"
     inkscape:zoom="2.2448851"
     inkscape:cx="141.43263"
     inkscape:cy="98.223289"
     inkscape:window-x="0"
     inkscape:window-y="0"
     inkscape:window-maximized="0"
     inkscape:current-layer="Layer_1"
     inkscape:showpageshadow="2"
     inkscape:pagecheckerboard="0"
     inkscape:deskcolor="#d1d1d1" />
  <defs
     id="defs7">
    <style
       id="style2">.cls-1{fill:none;}.cls-2{clip-path:url(#clip-path);}.cls-3{fill:#e5e5e5;}.cls-4{fill:#292929;}.cls-5{fill:#94ccef;}.cls-6{font-size:45px;font-family:Roboto-Medium, Roboto;font-weight:500;}.cls-6,.cls-9{fill:#e4e5e5;}.cls-7{letter-spacing:-0.01em;}.cls-8{letter-spacing:-0.01em;}.cls-9{font-size:35px;font-family:Roboto-Light, Roboto;font-weight:300;}.cls-10{letter-spacing:-0.01em;}.cls-11{letter-spacing:-0.01em;}</style>
    <clipPath
       id="clip-path">
      <rect
         class="cls-1"
         y="13.65"
         width="109.24"
         height="109.24"
         id="rect4"
         x="0" />
    </clipPath>
  </defs>
  <title
     id="title9">horizon-eda-logo_with_text</title>
  <g
     id="Layer_1"
     data-name="Layer 1"
     transform="translate(-62.225172,-24.282389)">
    <g
       id="g2"
       transform="matrix(1.4276989,0,0,1.4276989,-82.579759,-25.005533)">
      <g
         id="g1"
         transform="matrix(2.9930356,0,0,2.9930356,-57.205495,124.3137)">
        <path
           style="color:#000000;font-variation-settings:normal;overflow:visible;vector-effect:none;fill:#e9e9e9;fill-opacity:1;stroke:none;stroke-width:2;stroke-linecap:butt;stroke-linejoin:round;stroke-miterlimit:4;stroke-dasharray:none;stroke-dashoffset:0;stroke-opacity:1;-inkscape-stroke:none;paint-order:markers fill stroke;stop-color:#000000"
           d="m 63.500027,-24.5011 4.999975,-4.000002 v 9.500001 l -4.999975,4.5 z"
           id="path3" />
        <path
           style="color:#000000;overflow:visible;fill:#fffeec;fill-opacity:1;stroke:none;stroke-width:2;stroke-linejoin:round;stroke-opacity:1;paint-order:markers fill stroke"
           d="m 53.999995,-26.0011 5.492977,-3.498901 9.00703,0.998899 -4.999975,4.000002 z"
           id="path1"
           sodipodi:nodetypes="ccccc" />
        <path
           style="color:#000000;overflow:visible;fill:#bcebf1;fill-opacity:1;stroke:none;stroke-width:2;stroke-linejoin:round;stroke-opacity:1;paint-order:markers fill stroke"
           d="m 53.999995,-26.0011 9.500032,1.5 v 9.999999 l -10.000025,-1.5 z"
           id="path2" />
        <path
           sodipodi:nodetypes="cc"
           inkscape:connector-curvature="0"
           id="path6915"
           d="m 68.500002,-19.001101 v -9.500001"
           style="color:#000000;clip-rule:nonzero;display:inline;overflow:visible;visibility:visible;isolation:auto;mix-blend-mode:normal;color-interpolation:sRGB;color-interpolation-filters:linearRGB;solid-color:#000000;solid-opacity:1;vector-effect:none;fill:none;fill-opacity:1;fill-rule:nonzero;stroke:#010101;stroke-width:0.999999;stroke-linecap:round;stroke-linejoin:round;stroke-miterlimit:4;stroke-dasharray:none;stroke-dashoffset:0;stroke-opacity:1;marker:none;color-rendering:auto;image-rendering:auto;shape-rendering:auto;text-rendering:auto;enable-background:accumulate" />
        <path
           sodipodi:nodetypes="cc"
           inkscape:connector-curvature="0"
           id="path6917"
           d="m 63.500027,-14.501101 4.999975,-4.5"
           style="color:#000000;clip-rule:nonzero;display:inline;overflow:visible;visibility:visible;isolation:auto;mix-blend-mode:normal;color-interpolation:sRGB;color-interpolation-filters:linearRGB;solid-color:#000000;solid-opacity:1;vector-effect:none;fill:none;fill-opacity:1;fill-rule:nonzero;stroke:#010101;stroke-width:0.999999;stroke-linecap:butt;stroke-linejoin:round;stroke-miterlimit:4;stroke-dasharray:none;stroke-dashoffset:0;stroke-opacity:1;marker:none;color-rendering:auto;image-rendering:auto;shape-rendering:auto;text-rendering:auto;enable-background:accumulate" />
        <path
           sodipodi:nodetypes="cc"
           inkscape:connector-curvature="0"
           id="path6923"
           d="m 63.500027,-24.5011 -10.000025,-1.5"
           style="vector-effect:none;fill:none;fill-opacity:1;fill-rule:evenodd;stroke:#010101;stroke-width:0.999999;stroke-linecap:butt;stroke-linejoin:round;stroke-miterlimit:4;stroke-dasharray:none;stroke-dashoffset:0;stroke-opacity:1;marker:none" />
        <path
           sodipodi:nodetypes="cc"
           inkscape:connector-curvature="0"
           id="path6921"
           d="m 63.500027,-24.5011 4.999975,-4.000002"
           style="vector-effect:none;fill:none;fill-opacity:1;fill-rule:evenodd;stroke:#010101;stroke-width:0.999999;stroke-linecap:butt;stroke-linejoin:round;stroke-miterlimit:4;stroke-dasharray:none;stroke-dashoffset:0;stroke-opacity:1;marker:none" />
        <path
           sodipodi:nodetypes="cc"
           inkscape:connector-curvature="0"
           id="path6927"
           d="m 59.492972,-29.500001 9.00703,0.998899"
           style="vector-effect:none;fill:none;fill-opacity:1;fill-rule:evenodd;stroke:#010101;stroke-width:0.999999;stroke-linecap:round;stroke-linejoin:round;stroke-miterlimit:4;stroke-dasharray:none;stroke-dashoffset:0;stroke-opacity:1;marker:none" />
        <path
           sodipodi:nodetypes="cc"
           inkscape:connector-curvature="0"
           id="path6925"
           d="m 59.492972,-29.500001 -5.99297,3.498901"
           style="vector-effect:none;fill:none;fill-opacity:1;fill-rule:evenodd;stroke:#010101;stroke-width:0.999999;stroke-linecap:round;stroke-linejoin:round;stroke-miterlimit:4;stroke-dasharray:none;stroke-dashoffset:0;stroke-opacity:1;marker:none" />
        <path
           sodipodi:nodetypes="cc"
           inkscape:connector-curvature="0"
           id="path6913"
           d="m 63.500027,-14.501101 -10.000025,-1.5"
           style="color:#000000;clip-rule:nonzero;display:inline;overflow:visible;visibility:visible;isolation:auto;mix-blend-mode:normal;color-interpolation:sRGB;color-interpolation-filters:linearRGB;solid-color:#000000;solid-opacity:1;vector-effect:none;fill:none;fill-opacity:1;fill-rule:nonzero;stroke:#010101;stroke-width:0.999999;stroke-linecap:round;stroke-linejoin:round;stroke-miterlimit:4;stroke-dasharray:none;stroke-dashoffset:0;stroke-opacity:1;marker:none;color-rendering:auto;image-rendering:auto;shape-rendering:auto;text-rendering:auto;enable-background:accumulate" />
        <path
           sodipodi:nodetypes="cc"
           inkscape:connector-curvature="0"
           id="path6911"
           d="M 53.500002,-16.001101 V -26.0011"
           style="color:#000000;clip-rule:nonzero;display:inline;overflow:visible;visibility:visible;isolation:auto;mix-blend-mode:normal;color-interpolation:sRGB;color-interpolation-filters:linearRGB;solid-color:#000000;solid-opacity:1;vector-effect:none;fill:none;fill-opacity:1;fill-rule:nonzero;stroke:#010101;stroke-width:0.999999;stroke-linecap:butt;stroke-linejoin:round;stroke-miterlimit:4;stroke-dasharray:none;stroke-dashoffset:0;stroke-opacity:1;marker:none;color-rendering:auto;image-rendering:auto;shape-rendering:auto;text-rendering:auto;enable-background:accumulate" />
        <path
           sodipodi:nodetypes="cc"
           inkscape:connector-curvature="0"
           id="path6919"
           d="M 63.500027,-14.501101 V -24.5011"
           style="vector-effect:none;fill:none;fill-opacity:1;fill-rule:evenodd;stroke:#010101;stroke-width:0.999999;stroke-linecap:butt;stroke-linejoin:round;stroke-miterlimit:4;stroke-dasharray:none;stroke-dashoffset:0;stroke-opacity:1;marker:none" />
      </g>
      <path
         style="font-weight:bold;font-size:45.3543px;line-height:78.018px;font-family:Roboto;-inkscape-font-specification:'Roboto Bold';letter-spacing:0px;word-spacing:0px;fill:#e9e9e9;fill-opacity:1;stroke-width:0.439345px"
         d="M 160.20179,59.391005 V 45.224744 h 4.35885 q 1.86808,0 3.33724,0.846473 1.4789,0.836744 2.30591,2.393476 0.82701,1.547002 0.82701,3.522106 v 0.651882 q 0,1.975103 -0.81728,3.512376 -0.80755,1.537273 -2.28645,2.383746 -1.4789,0.846473 -3.33724,0.856202 z m 2.91887,-11.801974 v 9.457147 h 1.41079 q 1.7124,0 2.61726,-1.118901 0.90484,-1.118901 0.92431,-3.201031 v -0.749177 q 0,-2.159965 -0.89513,-3.269137 -0.89512,-1.118901 -2.61725,-1.118901 z m 16.15109,10.731721 q -1.04106,1.264845 -2.87995,1.264845 -1.69294,0 -2.58806,-0.972957 -0.8854,-0.972958 -0.90486,-2.850766 v -6.898269 h 2.81185 v 6.800973 q 0,1.644298 1.49835,1.644298 1.43025,0 1.96538,-0.992416 v -7.452855 h 2.82158 v 10.5274 h -2.64645 z m 7.4334,-9.457147 0.0876,1.216197 q 1.12863,-1.410788 3.0259,-1.410788 1.67349,0 2.49077,0.982687 0.81728,0.982687 0.83674,2.938331 v 6.800973 h -2.81185 V 52.65814 q 0,-0.895121 -0.38918,-1.294034 -0.38919,-0.408642 -1.29403,-0.408642 -1.18701,0 -1.78052,1.011876 v 7.423665 h -2.81184 v -10.5274 z m 13.41708,10.721992 q -2.31564,0 -3.77507,-1.420518 -1.44971,-1.420518 -1.44971,-3.784805 v -0.272428 q 0,-1.58592 0.61296,-2.831306 0.61297,-1.255115 1.73187,-1.926456 1.12863,-0.68107 2.56861,-0.68107 2.15996,0 3.39561,1.36214 1.24539,1.362141 1.24539,3.862642 v 1.148089 h -6.70367 q 0.13621,1.031336 0.81728,1.654028 0.6908,0.622693 1.7416,0.622693 1.62483,0 2.53941,-1.177279 l 1.3816,1.547003 q -0.63242,0.895121 -1.71241,1.401059 -1.07998,0.496208 -2.39347,0.496208 z m -0.32107,-8.639862 q -0.83675,0 -1.36214,0.564315 -0.51567,0.564315 -0.66161,1.615109 h 3.91128 v -0.22378 q -0.0195,-0.934039 -0.50593,-1.439977 -0.48648,-0.515667 -1.3816,-0.515667 z m 13.9522,0.116754 h 1.49836 q 1.07025,0 1.58592,-0.535127 0.51567,-0.535126 0.51567,-1.420517 0,-0.856203 -0.51567,-1.332952 -0.50594,-0.476749 -1.40106,-0.476749 -0.80756,0 -1.35241,0.44756 -0.54486,0.437831 -0.54486,1.14809 h -2.81184 q 0,-1.109171 0.5935,-1.984833 0.60323,-0.885392 1.67349,-1.3816 1.07998,-0.496208 2.37401,-0.496208 2.24754,0 3.52211,1.079983 1.27457,1.070253 1.27457,2.95779 0,0.972958 -0.5935,1.790242 -0.59351,0.817285 -1.55673,1.255115 1.19674,0.428102 1.78051,1.284304 0.5935,0.856203 0.5935,2.023752 0,1.887537 -1.3816,3.025898 -1.37187,1.13836 -3.63886,1.13836 -2.12104,0 -3.47346,-1.118901 -1.34268,-1.118901 -1.34268,-2.957791 h 2.81185 q 0,0.797825 0.5935,1.303763 0.60324,0.505938 1.4789,0.505938 1.00214,0 1.56646,-0.525397 0.57405,-0.535127 0.57405,-1.410788 0,-2.121048 -2.3351,-2.121048 h -1.48863 z m 8.87338,8.328516 V 45.224744 h 4.35884 q 1.86808,0 3.33725,0.846473 1.47889,0.836744 2.30591,2.393476 0.82701,1.547002 0.82701,3.522106 v 0.651882 q 0,1.975103 -0.81728,3.512376 -0.80756,1.537273 -2.28645,2.383746 -1.4789,0.846473 -3.33725,0.856202 z m 2.91886,-11.801974 v 9.457147 h 1.41079 q 1.71241,0 2.61726,-1.118901 0.90485,-1.118901 0.92431,-3.201031 v -0.749177 q 0,-2.159965 -0.89512,-3.269137 -0.89512,-1.118901 -2.61726,-1.118901 z"
         id="text1"
         aria-label="Dune 3D" />
      <path
         style="font-size:34.0157px;line-height:58.5135px;font-family:Roboto;-inkscape-font-specification:Roboto;letter-spacing:0px;word-spacing:0px;fill:#e9e9e9;fill-opacity:1;stroke-width:0.439345px"
         d="m 166.62817,70.175247 q 0,1.802402 -0.82458,2.904276 -0.82458,1.101874 -2.23294,1.101874 -1.43754,0 -2.26213,-0.912148 v 3.801827 h -1.34997 V 66.139909 h 1.23322 l 0.0657,0.875661 q 0.82458,-1.021605 2.29132,-1.021605 1.42295,0 2.24752,1.072685 0.83188,1.072685 0.83188,2.984545 z m -1.34998,-0.153241 q 0,-1.335383 -0.56918,-2.108884 -0.56918,-0.7735 -1.5616,-0.7735 -1.22592,0 -1.83889,1.087279 v 3.77264 q 0.60567,1.079982 1.85349,1.079982 0.97052,0 1.5397,-0.766204 0.57648,-0.7735 0.57648,-2.291313 z m 7.93933,4.013447 q -0.11676,-0.23351 -0.18973,-0.831878 -0.94133,0.977822 -2.24753,0.977822 -1.16755,0 -1.91916,-0.656747 -0.74431,-0.664042 -0.74431,-1.67835 0,-1.233223 0.93404,-1.91186 0.94134,-0.685935 2.64158,-0.685935 h 1.31349 v -0.620259 q 0,-0.707827 -0.42324,-1.123766 -0.42323,-0.423236 -1.24782,-0.423236 -0.72242,0 -1.21133,0.364859 -0.48891,0.364859 -0.48891,0.882958 h -1.35727 q 0,-0.591071 0.41594,-1.138359 0.42323,-0.554586 1.13835,-0.875661 0.72243,-0.321076 1.5835,-0.321076 1.36456,0 2.13807,0.685935 0.7735,0.678637 0.80269,1.875374 v 3.633994 q 0,1.087279 0.27729,1.72943 v 0.116755 z m -2.24024,-1.028902 q 0.63486,0 1.20404,-0.328373 0.56918,-0.328373 0.82458,-0.853769 v -1.619974 h -1.05809 q -2.48104,0 -2.48104,1.452139 0,0.634854 0.42323,0.992415 0.42324,0.357562 1.08728,0.357562 z m 9.3112,-5.655311 q -0.30648,-0.05108 -0.66404,-0.05108 -1.32809,0 -1.80241,1.131063 v 5.604231 h -1.34997 V 66.13991 h 1.31349 l 0.0219,0.912146 q 0.66404,-1.05809 1.88267,-1.05809 0.39405,0 0.59837,0.10216 z m 5.82314,6.684213 q -0.11675,-0.23351 -0.18972,-0.831878 -0.94134,0.977822 -2.24753,0.977822 -1.16755,0 -1.91916,-0.656747 -0.74431,-0.664042 -0.74431,-1.67835 0,-1.233223 0.93404,-1.91186 0.94133,-0.685935 2.64157,-0.685935 h 1.3135 v -0.620259 q 0,-0.707827 -0.42324,-1.123766 -0.42324,-0.423236 -1.24782,-0.423236 -0.72242,0 -1.21133,0.364859 -0.48891,0.364859 -0.48891,0.882958 h -1.35727 q 0,-0.591071 0.41594,-1.138359 0.42323,-0.554586 1.13836,-0.875661 0.72241,-0.321076 1.58348,-0.321076 1.36458,0 2.13808,0.685935 0.7735,0.678637 0.80268,1.875374 v 3.633994 q 0,1.087279 0.2773,1.72943 v 0.116755 z m -2.24023,-1.028902 q 0.63486,0 1.20404,-0.328373 0.56918,-0.328373 0.82458,-0.853769 v -1.619974 h -1.05809 q -2.48104,0 -2.48104,1.452139 0,0.634854 0.42323,0.992415 0.42324,0.357562 1.08728,0.357562 z m 6.76449,-6.866642 0.0365,0.875661 q 0.86836,-1.021605 2.34239,-1.021605 1.65646,0 2.25483,1.269709 0.39404,-0.56918 1.0216,-0.919445 0.63485,-0.350264 1.49592,-0.350264 2.5978,0 2.64158,2.751035 v 5.290453 h -1.34998 v -5.210184 q 0,-0.846472 -0.38675,-1.262411 -0.38675,-0.423236 -1.29889,-0.423236 -0.75162,0 -1.24782,0.452424 -0.49621,0.445128 -0.57648,1.204035 v 5.239372 h -1.35728 v -5.173698 q 0,-1.722133 -1.68564,-1.722133 -1.32809,0 -1.817,1.131062 v 5.764769 h -1.34998 v -7.895544 z m 15.10515,8.041488 q -1.60538,0 -2.61239,-1.050794 -1.00701,-1.05809 -1.00701,-2.824007 v -0.248104 q 0,-1.174845 0.44513,-2.094289 0.45242,-0.926742 1.25511,-1.444842 0.80998,-0.525396 1.75132,-0.525396 1.53971,0 2.39348,1.014308 0.85377,1.014307 0.85377,2.904275 v 0.561883 h -5.34884 q 0.0292,1.167548 0.67864,1.889969 0.65675,0.715123 1.66376,0.715123 0.71512,0 1.21133,-0.291887 0.49621,-0.291887 0.86836,-0.773501 l 0.82458,0.642152 q -0.99241,1.52511 -2.97724,1.52511 z m -0.16784,-7.078261 q -0.81728,0 -1.37187,0.598368 -0.55458,0.591071 -0.68593,1.663756 h 3.95507 V 69.2631 q -0.0584,-1.028902 -0.55459,-1.590784 -0.49621,-0.56918 -1.34268,-0.56918 z m 6.64043,-2.875087 v 1.91186 h 1.47403 v 1.043496 h -1.47403 v 4.896405 q 0,0.474316 0.19703,0.715123 0.19702,0.23351 0.67134,0.23351 0.2335,0 0.64215,-0.08757 v 1.094577 q -0.5327,0.145944 -1.0362,0.145944 -0.90485,0 -1.36458,-0.547289 -0.45972,-0.547288 -0.45972,-1.554298 v -4.896405 h -1.43754 v -1.043496 h 1.43754 v -1.91186 z m 6.86664,3.123191 q -0.30648,-0.05108 -0.66404,-0.05108 -1.32809,0 -1.8024,1.131063 v 5.604231 h -1.34998 V 66.13991 h 1.31349 l 0.0219,0.912146 q 0.66404,-1.05809 1.88267,-1.05809 0.39405,0 0.59837,0.10216 z m 2.70725,6.684213 h -1.34997 v -7.895544 h 1.34997 z m -1.45943,-9.989834 q 0,-0.328373 0.19702,-0.554586 0.20432,-0.226212 0.59837,-0.226212 0.39405,0 0.59837,0.226212 0.20432,0.226213 0.20432,0.554586 0,0.328373 -0.20432,0.547288 -0.20432,0.218916 -0.59837,0.218916 -0.39405,0 -0.59837,-0.218916 -0.19702,-0.218915 -0.19702,-0.547288 z m 6.78637,9.033904 q 0.72243,0 1.26241,-0.437831 0.53999,-0.43783 0.59837,-1.094576 h 1.27701 q -0.0365,0.678637 -0.46702,1.2916 -0.43053,0.612963 -1.15296,0.977822 -0.71512,0.364859 -1.51781,0.364859 -1.61267,0 -2.5686,-1.072686 -0.94863,-1.079982 -0.94863,-2.948058 V 69.93444 q 0,-1.152954 0.42323,-2.050507 0.42324,-0.897552 1.21133,-1.39376 0.79539,-0.496208 1.87538,-0.496208 1.32808,0 2.20374,0.795392 0.88296,0.795392 0.94134,2.065101 h -1.27701 q -0.0584,-0.766203 -0.58377,-1.255114 -0.5181,-0.496208 -1.2843,-0.496208 -1.02891,0 -1.59809,0.744312 -0.56188,0.737014 -0.56188,2.138072 v 0.255401 q 0,1.364572 0.56188,2.101587 0.56189,0.737015 1.60538,0.737015 z m 10.17956,-5.01316 h 1.01431 q 0.95593,-0.01459 1.50322,-0.503505 0.54729,-0.488911 0.54729,-1.320789 0,-1.868077 -1.86078,-1.868077 -0.87566,0 -1.40106,0.503505 -0.5181,0.496208 -0.5181,1.320789 h -1.34998 q 0,-1.262411 0.91944,-2.094289 0.92675,-0.839176 2.3497,-0.839176 1.50322,0 2.35698,0.795392 0.85377,0.795392 0.85377,2.211045 0,0.693231 -0.45242,1.34268 -0.44513,0.649449 -1.21863,0.970524 0.87566,0.277293 1.34998,0.919445 0.48161,0.642151 0.48161,1.568892 0,1.430247 -0.93404,2.269422 -0.93403,0.839176 -2.42995,0.839176 -1.49593,0 -2.43727,-0.809987 -0.93403,-0.809987 -0.93403,-2.138072 h 1.35727 q 0,0.839175 0.54729,1.34268 0.54729,0.503505 1.46674,0.503505 0.97781,0 1.49592,-0.510803 0.51809,-0.510802 0.51809,-1.466732 0,-0.926741 -0.56918,-1.422949 -0.56918,-0.496208 -1.64186,-0.510802 h -1.01431 z m 6.77908,5.96909 V 63.410765 h 2.99914 q 1.38646,0 2.45185,0.612962 1.06539,0.612963 1.64186,1.744026 0.58378,1.131062 0.59108,2.597794 v 0.678638 q 0,1.503218 -0.58378,2.63428 -0.57648,1.131062 -1.65646,1.736728 -1.07268,0.605666 -2.50293,0.62026 z m 1.40106,-9.471735 v 8.326078 h 1.47403 q 1.61997,0 2.51752,-1.00701 0.90485,-1.00701 0.90485,-2.86779 v -0.62026 q 0,-1.8097 -0.85377,-2.809413 -0.84647,-1.00701 -2.40807,-1.021605 z m 19.91399,6.10044 q -0.19703,1.685647 -1.24782,2.605091 -1.0435,0.912148 -2.78022,0.912148 -1.88267,0 -3.02103,-1.349978 -1.13106,-1.349978 -1.13106,-3.612102 v -1.021605 q 0,-1.481326 0.52539,-2.605092 0.53269,-1.123765 1.50322,-1.722133 0.97052,-0.605666 2.24753,-0.605666 1.69294,0 2.71455,0.948633 1.0216,0.941336 1.18944,2.612389 h -1.40836 q -0.18243,-1.269709 -0.79539,-1.838888 -0.60566,-0.56918 -1.70024,-0.56918 -1.34268,0 -2.10888,0.992416 -0.75891,0.992416 -0.75891,2.824007 V 69.2631 q 0,1.729431 0.72242,2.751035 0.72242,1.021605 2.02132,1.021605 1.16754,0 1.78781,-0.525397 0.62755,-0.532694 0.83187,-1.846185 z m 7.77879,0.598368 h -4.45128 l -0.99971,2.772927 h -1.44484 l 4.05723,-10.624688 h 1.22592 l 4.06453,10.624688 h -1.43754 z m -4.02804,-1.152954 h 3.6121 l -1.8097,-4.969377 z m 7.91014,3.925881 V 63.410765 h 2.99914 q 1.38646,0 2.45185,0.612962 1.06539,0.612963 1.64186,1.744026 0.58378,1.131062 0.59108,2.597794 v 0.678638 q 0,1.503218 -0.58378,2.63428 -0.57647,1.131062 -1.65646,1.736728 -1.07268,0.605666 -2.50293,0.62026 z m 1.40106,-9.471735 v 8.326078 h 1.47403 q 1.61997,0 2.51752,-1.00701 0.90485,-1.00701 0.90485,-2.86779 v -0.62026 q 0,-1.8097 -0.85377,-2.809413 -0.84647,-1.00701 -2.40807,-1.021605 z"
         id="text2"
         aria-label="parametric 3D CAD" />
    </g>
  </g>
</svg>
